PathFileType	4	(X/Y/Z)	Walk1_0-155.trc
DataRate	CameraRate	NumFrames	NumMarkers	Units	OrigDataRate	OrigDataStartFrame	OrigNumFrames
30	30	9	22	m	30	96	155
Frame#	Time	Hip			RHip			RKnee			RAnkle			RBigToe			RSmallToe			RHeel			LHip			LKnee			LAnkle			LBigToe			LSmallToe			LHeel			Neck			Head			Nose			RShoulder			RElbow			RWrist			LShoulder			LElbow			LWrist		
		X1	Y1	Z1	X2	Y2	Z2	X3	Y3	Z3	X4	Y4	Z4	X5	Y5	Z5	X6	Y6	Z6	X7	Y7	Z7	X8	Y8	Z8	X9	Y9	Z9	X10	Y10	Z10	X11	Y11	Z11	X12	Y12	Z12	X13	Y13	Z13	X14	Y14	Z14	X15	Y15	Z15	X16	Y16	Z16	X17	Y17	Z17	X18	Y18	Z18	X19	Y19	Z19	X20	Y20	Z20	X21	Y21	Z21	X22	Y22	Z22
97	3.2333333333333334	0.14165502225838011	0.890097500744994	0.34638947478612553	0.14754086225770105	0.8938128532017541	0.4607880698822967	0.28792728257376093	0.5599529380489588	0.4629859109974619	0.007165772100864434	0.295070370674784	0.4293625558727078	0.0	0.0	0.0	0.0	0.0	0.0	0.0	0.0	0.0	0.13715972878082922	0.8872065837944478	0.23212327585719628	0.1513076148080085	0.5124072963724909	0.2565329678901405	0.12017860663943282	0.10846821781342199	0.2810646832139452	0.0	0.0	0.0	0.0	0.0	0.0	0.0	0.0	0.0	0.08065249932859138	1.463259068826917	0.3565018023593149	0.24130490886011458	1.7900210906183387	0.33693573469826216	0.2408961693212616	1.6894100796122977	0.325081786676946	0.046907300298103485	1.4687932733946165	0.5225160840564487	0.07734797979925541	1.1662840608603844	0.5791403048607049	0.11757706637211074	0.9127720239510999	0.6005451336136362	0.08408601001543341	1.4621553142244978	0.15643753048334597	0.15068916093111046	1.1660099685036662	0.08826612320797775	0.24836689331087353	0.9194705395137531	0.07299104193368687
98	3.2666666666666666	0.1764427774215523	0.8921848923951929	0.3485093438575645	0.1864926379980796	0.896348235670617	0.4644734775793534	0.3532946792592793	0.5706697763420676	0.46063639265225664	0.11795883521033984	0.26985806226967	0.4334877590236154	0.0	0.0	0.0	0.0	0.0	0.0	0.0	0.0	0.0	0.16802757138341556	0.8888910526715257	0.23287641990297173	0.16109946802505887	0.5128922571073388	0.2576552392627351	0.12230035245893087	0.11062048890389219	0.2822392132206842	0.0	0.0	0.0	0.0	0.0	0.0	0.0	0.0	0.0	0.11655829209442801	1.4689799334326523	0.35297814313205245	0.28809213887879187	1.791062880051684	0.3338266663874447	0.2786476239279176	1.6927761706943423	0.3271382329581256	0.08342655650173689	1.4739211312621943	0.523188771228482	0.09523571157534035	1.1714845002145984	0.579319254198242	0.12272620679731633	0.9169492163054813	0.6056514017455882	0.12727563995643096	1.4671002836655576	0.15567285104028714	0.20583172074654088	1.1753200316633068	0.08766259172639711	0.32356930067232875	0.9364019350543447	0.07672714083393811
99	3.3	0.21102340293064267	0.891998822503246	0.3509072793001913	0.22508644522542606	0.8963861883333987	0.4679966866136613	0.4107915116475737	0.5744319527203183	0.4585841265812469	0.23245104451611182	0.23989997666928964	0.43902077505403475	0.0	0.0	0.0	0.0	0.0	0.0	0.0	0.0	0.0	0.19876037984903852	0.8885301336862944	0.23429377490353617	0.17254886046144424	0.5119154771007983	0.25914578525462717	0.12467910202510489	0.1126474658061186	0.28331857640690217	0.0	0.0	0.0	0.0	0.0	0.0	0.0	0.0	0.0	0.1504605934416945	1.4728719491108877	0.3478720255382927	0.3360462801627892	1.7896737928399618	0.3315322092252138	0.32133638651114205	1.6927103589088974	0.32884925783298175	0.12047360815545527	1.4761464906524093	0.5244717741130336	0.11301341987264689	1.1750150438549167	0.5793441959768286	0.1319071641572684	0.920718338424197	0.6115730787398848	0.17124706476881324	1.4705339004925468	0.1571061885984821	0.25630752188473516	1.1829390137244342	0.08714532830427572	0.3947069502363962	0.9527858734660426	0.08093540607004872
100	3.333333333333333	0.24632997854908198	0.8898766189005392	0.35358849875900833	0.2638893949105694	0.894162932392452	0.4710652161873437	0.4598598329722259	0.569935418446495	0.45762306337915654	0.34775209237574933	0.21054353668489273	0.4461586437530965	0.0	0.0	0.0	0.0	0.0	0.0	0.0	0.0	0.0	0.23061883150003762	0.8865355754778697	0.2366723587433242	0.18588446615814241	0.5098680769519734	0.2607711497053837	0.12612057907288834	0.1140142381073755	0.28449365025386164	0.0	0.0	0.0	0.0	0.0	0.0	0.0	0.0	0.0	0.1838774036206561	1.4744968826269436	0.342292856731783	0.38221263264894495	1.7870942515586388	0.33220358570419156	0.3703664690642489	1.6891416335999825	0.330062455896363	0.157210980452704	1.4755316985181794	0.5247607935964974	0.13268284174170944	1.1767307817965769	0.5790167238243742	0.14566612169240323	0.9228668390227014	0.6178604181444792	0.2156155726192551	1.4721354876885429	0.16020771825162156	0.30327523670562884	1.1882769700245632	0.08674841318019279	0.4623108017449188	0.9676618958525591	0.08648811419115893
101	3.3666666666666667	0.2831713486448284	0.8860986445506375	0.35678420740248606	0.30345507169807573	0.8899744183886333	0.47390255683474736	0.5022251026241048	0.5577654888034888	0.45874963467121715	0.45928523419815637	0.18636842670281611	0.45417609347293647	0.0	0.0	0.0	0.0	0.0	0.0	0.0	0.0	0.0	0.26468532518551935	0.8831538495150975	0.2402630833204939	0.20155112822944338	0.5074740375589497	0.2626167813938997	0.12602292507304017	0.11446777247753824	0.2857715709743567	0.0	0.0	0.0	0.0	0.0	0.0	0.0	0.0	0.0	0.218897458297024	1.47353842943522	0.3379119453316685	0.42442022197765417	1.7840815250053426	0.33694725125067576	0.42388185344287915	1.682796777768624	0.33134002136268875	0.19432693505399828	1.4723544655246181	0.5240719051280366	0.15636503309842062	1.1763454150675643	0.578893815010873	0.1639277033027383	0.9225749451702273	0.6240544512884793	0.2599978507555876	1.4716013834290094	0.16409613761969902	0.34826755025343314	1.190891088219764	0.08695078125492851	0.525516051677639	0.9799031955685593	0.09261702833171902
102	3.4	0.32229483383823143	0.8808944784969237	0.3608069983301003	0.34456388399171267	0.88421124116593	0.47712591359094947	0.5412488559457527	0.540203544814605	0.46223785320691396	0.5612556963819755	0.16943951768947024	0.46141007327182115	0.0	0.0	0.0	0.0	0.0	0.0	0.0	0.0	0.0	0.30173935087380904	0.8784549360489363	0.24509912056447256	0.22054091811144325	0.5052597809754573	0.2648572956667085	0.12485119296721907	0.1141112737272767	0.2868139873778165	0.0	0.0	0.0	0.0	0.0	0.0	0.0	0.0	0.0	0.25699004999164365	1.469970209146513	0.3360550400726115	0.4627515257745935	1.780700109913089	0.34517221594138453	0.4779293802012309	1.6750793972160796	0.3333452630269953	0.23316732564759174	1.4669749549534878	0.5235996714673513	0.18530212828958115	1.1736294984597295	0.5796095756615592	0.18649422530830817	0.9196684937077815	0.629888188032649	0.30413346805204733	1.4688468723596084	0.16817294437358027	0.3926498801321552	1.190582332236664	0.08843133200248829	0.5827271593145582	0.9883797285014758	0.09770563258735805
103	3.433333333333333	0.36432713768343433	0.874601121834247	0.36588801667793147	0.3880797213923412	0.8774125645127808	0.48142843297927956	0.580358992415133	0.5208388716355826	0.4670580028032003	0.6481700943767547	0.15855204948534457	0.4659483970087976	0.0	0.0	0.0	0.0	0.0	0.0	0.0	0.0	0.0	0.3422472466120443	0.8725845177959546	0.2509767644709835	0.24392299012458454	0.5035971983022093	0.26730776334357115	0.124018236384767	0.11371982686538985	0.2873057847284229	0.0	0.0	0.0	0.0	0.0	0.0	0.0	0.0	0.0	0.29832939185990476	1.4641563077805768	0.3371320533299784	0.49953272504893637	1.776554364467783	0.354983587107087	0.5289197049070078	1.6674225424552636	0.3366039608935746	0.2743496763079475	1.459941195784111	0.52443246812886	0.21952496042423605	1.1687312828561078	0.5814093051692415	0.21345010097796027	0.9144422951466469	0.6353306579224509	0.34791022114288794	1.4641139841173232	0.1722581527701362	0.43718498373241255	1.1874701216742127	0.09179399339894628	0.6331603757511387	0.9921791118188161	0.10099541213592221
104	3.466666666666667	0.4096266450824586	0.8676745804159129	0.37201146366208654	0.4345391767344788	0.870163495919568	0.48710323083870577	0.6214928962346606	0.5035570608980537	0.4715766481612492	0.716704769140623	0.150562399794547	0.4667257781770562	0.0	0.0	0.0	0.0	0.0	0.0	0.0	0.0	0.0	0.3864290929989326	0.8658831170653065	0.2575861137768122	0.2728322051599473	0.5025548317147656	0.2695822851161065	0.12570477624055448	0.11507288512401503	0.28743630433289336	0.0	0.0	0.0	0.0	0.0	0.0	0.0	0.0	0.0	0.34203861020641224	1.4567627186153234	0.3407352139950033	0.5381427714982584	1.771027259776998	0.36391707217517527	0.5750723501573226	1.6607832486115686	0.34129267836654487	0.31748834141811577	1.4519711774876074	0.5270176493656826	0.25844554038769696	1.1621953873997932	0.5841911586578639	0.2453421958076495	0.907478702190456	0.6404782177307216	0.3915538123414437	1.4579259821768378	0.17661388554743054	0.48190231409706974	1.1820445721433714	0.0973111685550368	0.6773556772877011	0.9907666017871952	0.10320175389221942
105	3.5	0.45812275039226114	0.8606094701522482	0.37888600096434166	0.48379924544818104	0.8629729730065574	0.4937994449847188	0.6644730761510413	0.4909424674242901	0.4748194487789885	0.766715567288792	0.14268880224494135	0.4640221114602262	0.0	0.0	0.0	0.0	0.0	0.0	0.0	0.0	0.0	0.434266429372009	0.8588517011013204	0.2646923927860986	0.3090236455586304	0.5016348640344218	0.27164747433095005	0.13272514609202116	0.12054800290960978	0.28797818026347155	0.0	0.0	0.0	0.0	0.0	0.0	0.0	0.0	0.0	0.38682169938247907	1.4486618387357981	0.34599229596995795	0.580601343708509	1.763951818976908	0.3703236390713697	0.6160805192247989	1.6556698678549193	0.34698285793436	0.3616192114347271	1.4438540557472623	0.5311663161482759	0.3016264893330301	1.1547757142650168	0.5877621357332831	0.28311597861922605	0.899556686633848	0.645501940331589	0.4356354322719567	1.4510132456619105	0.181794608741528	0.5263128906013065	1.1751541578925686	0.104781747379775	0.7167500912999951	0.9842272058852403	0.10596085153842105
